<svg width="30" height="31" viewBox="0 0 30 31" fill="none" xmlns="http://www.w3.org/2000/svg">
<path fill-rule="evenodd" clip-rule="evenodd" d="M13.7675 6.75415C13.9825 6.4729 14.3725 6.06665 15 6.06665C15.6275 6.06665 16.0175 6.4729 16.2325 6.75415C16.4388 7.02165 16.645 7.3929 16.8575 7.77415L17.0088 8.04665L17.08 8.17165L17.2038 8.2004L17.5013 8.2679C17.91 8.3604 18.3175 8.45165 18.63 8.5754C18.975 8.71165 19.4425 8.9754 19.6238 9.55665C19.8013 10.1254 19.5775 10.6079 19.3825 10.9191C19.2013 11.2066 18.9263 11.5266 18.645 11.8554L18.445 12.0904L18.3425 12.2117C18.345 12.2567 18.3513 12.3091 18.3575 12.3804L18.3875 12.6929C18.43 13.1316 18.4713 13.5566 18.4563 13.8966C18.4413 14.2541 18.3563 14.7941 17.8713 15.1604C17.3713 15.5404 16.8213 15.4579 16.4713 15.3566C16.1488 15.2654 15.7675 15.0891 15.3838 14.9129L15.1063 14.7841L15 14.7354L14.8938 14.7854L14.615 14.9129C14.2325 15.0891 13.8513 15.2654 13.5288 15.3566C13.1788 15.4566 12.6288 15.5404 12.1288 15.1604C11.645 14.7941 11.5588 14.2542 11.5438 13.8979C11.5288 13.5567 11.5688 13.1316 11.6125 12.6916L11.6425 12.3791L11.6588 12.2117L11.555 12.0904L11.355 11.8554C11.0738 11.5266 10.7988 11.2054 10.6175 10.9179C10.4225 10.6079 10.1988 10.1254 10.3763 9.5554C10.5563 8.97665 11.025 8.71165 11.37 8.5754C11.6825 8.45165 12.09 8.3604 12.4988 8.2679L12.7963 8.2004L12.9213 8.17165L12.9913 8.04665L13.1425 7.77415C13.355 7.3929 13.5613 7.02165 13.7675 6.75415ZM15 8.29665C14.9284 8.42165 14.8455 8.56915 14.7513 8.73915L14.6288 8.95915L14.6 9.00915C14.5025 9.18915 14.34 9.48665 14.0688 9.6929C13.7925 9.9029 13.4588 9.9754 13.265 10.0179L13.21 10.0292L12.9725 10.0829C12.7525 10.1329 12.5738 10.1729 12.4225 10.2116C12.5213 10.3329 12.65 10.4854 12.8175 10.6816L12.98 10.8716L13.0175 10.9142C13.1525 11.0704 13.37 11.3204 13.4713 11.6454C13.5713 11.9654 13.5363 12.2954 13.515 12.5029L13.5088 12.5616L13.4838 12.8154C13.4645 13.0069 13.447 13.1986 13.4313 13.3904C13.5625 13.3329 13.71 13.2654 13.8863 13.1842L14.11 13.0817L14.16 13.0566C14.34 12.9729 14.6513 12.8254 15 12.8254C15.3488 12.8254 15.66 12.9729 15.84 13.0579L15.89 13.0817L16.1138 13.1842C16.288 13.265 16.4396 13.3337 16.5688 13.3904C16.5531 13.1986 16.5356 13.0069 16.5163 12.8154L16.4913 12.5616L16.485 12.5029C16.4638 12.2941 16.4288 11.9654 16.5288 11.6454C16.6288 11.3204 16.8475 11.0704 16.9825 10.9142L17.02 10.8716L17.1825 10.6816C17.35 10.4854 17.4788 10.3329 17.5775 10.2116C17.4263 10.1741 17.2475 10.1329 17.0275 10.0829L16.79 10.0292L16.735 10.0166C16.5413 9.9754 16.2075 9.9029 15.9313 9.69165C15.66 9.48665 15.4975 9.18915 15.4 9.0104L15.3713 8.95915L15.2488 8.73915C15.1555 8.56915 15.0725 8.42165 15 8.29665Z" fill="white"/>
<path fill-rule="evenodd" clip-rule="evenodd" d="M9.3725 2.76289C11.2326 2.45725 13.115 2.30797 15 2.31664C17.285 2.31664 19.1738 2.51789 20.6275 2.76289L20.7962 2.79164C22.0587 3.00289 23.1087 3.17914 23.9287 4.18914C24.455 4.83789 24.625 5.53914 24.6638 6.32039L25.2787 6.52539C25.8575 6.71789 26.3662 6.88789 26.7675 7.07539C27.2025 7.27789 27.6013 7.53789 27.9062 7.96164C28.2113 8.38539 28.3325 8.84539 28.3875 9.32164C28.4375 9.76289 28.4375 10.2966 28.4375 10.9091V11.0891C28.4375 11.5916 28.4375 12.0354 28.4 12.4066C28.36 12.8079 28.2712 13.1991 28.05 13.5766C27.8263 13.9554 27.5275 14.2229 27.1963 14.4529C26.89 14.6654 26.5025 14.8816 26.0625 15.1254L22.7625 16.9591C22.0875 18.2854 21.1625 19.4679 19.8875 20.3216C18.7938 21.0554 17.485 21.5204 15.9375 21.6529V24.1916H17.725C18.2307 24.1917 18.7208 24.3669 19.1119 24.6876C19.503 25.0082 19.7709 25.4545 19.87 25.9504L20.1437 27.3166H22.5C22.7486 27.3166 22.9871 27.4154 23.1629 27.5912C23.3387 27.767 23.4375 28.0055 23.4375 28.2541C23.4375 28.5028 23.3387 28.7412 23.1629 28.9171C22.9871 29.0929 22.7486 29.1916 22.5 29.1916H7.5C7.25136 29.1916 7.0129 29.0929 6.83709 28.9171C6.66127 28.7412 6.5625 28.5028 6.5625 28.2541C6.5625 28.0055 6.66127 27.767 6.83709 27.5912C7.0129 27.4154 7.25136 27.3166 7.5 27.3166H9.85625L10.13 25.9504C10.2291 25.4545 10.497 25.0082 10.8881 24.6876C11.2792 24.3669 11.7693 24.1917 12.275 24.1916H14.0625V21.6529C12.515 21.5204 11.2063 21.0554 10.1125 20.3229C8.83875 19.4679 7.9125 18.2854 7.2375 16.9591L3.9375 15.1254C3.54905 14.9195 3.1707 14.6951 2.80375 14.4529C2.45757 14.2288 2.16622 13.9298 1.95125 13.5779C1.74775 13.2188 1.6277 12.8185 1.6 12.4066C1.5625 12.0354 1.5625 11.5916 1.5625 11.0891V10.9079C1.5625 10.2979 1.5625 9.76289 1.6125 9.32164C1.6675 8.84539 1.7875 8.38414 2.09375 7.96164C2.39875 7.53789 2.7975 7.27789 3.23125 7.07414C3.635 6.88664 4.1425 6.71789 4.72125 6.52539L5.33625 6.32039C5.375 5.53789 5.545 4.83789 6.07125 4.18914C6.8925 3.17789 7.94125 3.00164 9.205 2.79164L9.3725 2.76289ZM11.7688 27.3166H18.2313L18.0312 26.3179C18.0171 26.2471 17.9789 26.1833 17.923 26.1375C17.8672 26.0917 17.7972 26.0667 17.725 26.0666H12.275C12.2028 26.0667 12.1328 26.0917 12.077 26.1375C12.0211 26.1833 11.9829 26.2471 11.9688 26.3179L11.7688 27.3166ZM5.3775 8.28289L5.36 8.28914C4.7225 8.50164 4.3175 8.63914 4.0225 8.77539C3.75125 8.90039 3.66375 8.98914 3.615 9.05789C3.56625 9.12664 3.51 9.23664 3.47625 9.53414C3.43875 9.85664 3.4375 10.2841 3.4375 10.9566V11.0479C3.4375 11.6041 3.4375 11.9529 3.465 12.2204C3.49 12.4654 3.53 12.5641 3.5675 12.6266C3.60375 12.6891 3.67 12.7716 3.8725 12.9129C4.0925 13.0654 4.3975 13.2354 4.885 13.5066L6.21625 14.2466C5.68125 12.2841 5.46625 10.1841 5.37875 8.28414M23.785 14.2466C24.32 12.2841 24.535 10.1841 24.6237 8.28414L24.6412 8.29039C25.2787 8.50289 25.6838 8.64039 25.9788 8.77664C26.25 8.90164 26.3375 8.99039 26.3862 9.05914C26.435 9.12789 26.4912 9.23789 26.525 9.53539C26.5625 9.85789 26.5637 10.2854 26.5637 10.9579V11.0491C26.5637 11.6054 26.5637 11.9541 26.5363 12.2216C26.5112 12.4666 26.4712 12.5654 26.4338 12.6279C26.3975 12.6904 26.3312 12.7729 26.1287 12.9141C25.9075 13.0666 25.6038 13.2366 25.1163 13.5079L23.785 14.2466ZM15 4.19164C12.825 4.19164 11.0413 4.38289 9.685 4.61164C8.17625 4.86664 7.86 4.96164 7.5275 5.37164C7.2 5.77414 7.16875 6.15664 7.235 7.85039C7.3475 10.6729 7.72 13.7204 8.8725 16.0379C9.4425 17.1804 10.1875 18.1154 11.1575 18.7654C12.12 19.4116 13.3638 19.8166 15 19.8166C16.6375 19.8166 17.88 19.4116 18.8438 18.7654C19.8137 18.1154 20.5575 17.1804 21.1262 16.0366C22.28 13.7204 22.6525 10.6741 22.7638 7.84914C22.8325 6.15664 22.8013 5.77414 22.4738 5.37164C22.1413 4.96164 21.8238 4.86664 20.315 4.61164C18.5581 4.32404 16.7803 4.18355 15 4.19164Z" fill="white"/>
</svg>
