<svg width="30" height="31" viewBox="0 0 30 31" fill="none" xmlns="http://www.w3.org/2000/svg">
<path fill-rule="evenodd" clip-rule="evenodd" d="M13.7675 6.75415C13.9825 6.4729 14.3725 6.06665 15 6.06665C15.6275 6.06665 16.0175 6.4729 16.2325 6.75415C16.4388 7.02165 16.645 7.3929 16.8575 7.77415L17.0088 8.04665L17.08 8.17165L17.2038 8.2004L17.5013 8.2679C17.91 8.3604 18.3175 8.45165 18.63 8.5754C18.975 8.71165 19.4425 8.9754 19.6238 9.55665C19.8013 10.1254 19.5775 10.6079 19.3825 10.9191C19.2013 11.2066 18.9263 11.5266 18.645 11.8554L18.445 12.0904L18.3425 12.2117C18.345 12.2567 18.3513 12.3091 18.3575 12.3804L18.3875 12.6929C18.43 13.1316 18.4713 13.5566 18.4563 13.8966C18.4413 14.2541 18.3563 14.7941 17.8713 15.1604C17.3713 15.5404 16.8213 15.4579 16.4713 15.3566C16.1488 15.2654 15.7675 15.0891 15.3838 14.9129L15.1063 14.7841L15 14.7354L14.8938 14.7854L14.615 14.9129C14.2325 15.0891 13.8513 15.2654 13.5288 15.3566C13.1788 15.4566 12.6288 15.5404 12.1288 15.1604C11.645 14.7941 11.5588 14.2542 11.5438 13.8979C11.5288 13.5567 11.5688 13.1316 11.6125 12.6916L11.6425 12.3791L11.6588 12.2117L11.555 12.0904L11.355 11.8554C11.0738 11.5266 10.7988 11.2054 10.6175 10.9179C10.4225 10.6079 10.1988 10.1254 10.3763 9.5554C10.5563 8.97665 11.025 8.71165 11.37 8.5754C11.6825 8.45165 12.09 8.3604 12.4988 8.2679L12.7963 8.2004L12.9213 8.17165L12.9913 8.04665L13.1425 7.77415C13.355 7.3929 13.5613 7.02165 13.7675 6.75415ZM15 8.29665C14.9284 8.42165 14.8455 8.56915 14.7513 8.73915L14.6288 8.95915L14.6 9.00915C14.5025 9.18915 14.34 9.48665 14.0688 9.6929C13.7925 9.9029 13.4588 9.9754 13.265 10.0179L13.21 10.0292L12.9725 10.0829C12.7525 10.1329 12.5738 10.1729 12.4225 10.2116C12.5213 10.3329 12.65 10.4854 12.8175 10.6816L12.98 10.8716L13.0175 10.9142C13.1525 11.0704 13.37 11.3204 13.4713 11.6454C13.5713 11.9654 13.5363 12.2954 13.515 12.5029L13.5088 12.5616L13.4838 12.8154C13.4645 13.0069 13.447 13.1986 13.4313 13.3904C13.5625 13.3329 13.71 13.2654 13.8863 13.1842L14.11 13.0817L14.16 13.0566C14.34 12.9729 14.6513 12.8254 15 12.8254C15.3488 12.8254 15.66 12.9729 15.84 13.0579L15.89 13.0817L16.1138 13.1842C16.288 13.265 16.4396 13.3337 16.5688 13.3904C16.5531 13.1986 16.5356 13.0069 16.5163 12.8154L16.4913 12.5616L16.485 12.5029C16.4638 12.2941 16.4288 11.9654 16.5288 11.6454C16.6288 11.3204 16.8475 11.0704 16.9825 10.9142L17.02 10.8716L17.1825 10.6816C17.35 10.4854 17.4788 10.3329 17.5775 10.2116C17.4263 10.1741 17.2475 10.1329 17.0275 10.0829L16.79 10.0292L16.735 10.0166C16.5413 9.9754 16.2075 9.9029 15.9313 9.69165C15.66 9.48665 15.4975 9.18915 15.4 9.0104L15.3713 8.95915L15.2488 8.73915C15.1555 8.56915 15.0725 8.42165 15 8.29665Z" fill="white"/>
<path fill-rule="evenodd" clip-rule="evenodd" d="M9.3725 2.76301C11.2326 2.45737 13.115 2.3081 15 2.31676C17.285 2.31676 19.1738 2.51801 20.6275 2.76301L20.7962 2.79176C22.0587 3.00301 23.1087 3.17926 23.9287 4.18926C24.455 4.83801 24.625 5.53926 24.6638 6.32051L25.2787 6.52551C25.8575 6.71801 26.3662 6.88801 26.7675 7.07551C27.2025 7.27801 27.6013 7.53801 27.9062 7.96176C28.2113 8.38551 28.3325 8.84551 28.3875 9.32176C28.4375 9.76301 28.4375 10.2968 28.4375 10.9093V11.0893C28.4375 11.5918 28.4375 12.0355 28.4 12.4068C28.36 12.808 28.2712 13.1993 28.05 13.5768C27.8263 13.9555 27.5275 14.223 27.1963 14.453C26.89 14.6655 26.5025 14.8818 26.0625 15.1255L22.7625 16.9593C22.0875 18.2855 21.1625 19.468 19.8875 20.3218C18.7938 21.0555 17.485 21.5205 15.9375 21.653V24.1918H17.725C18.2307 24.1918 18.7208 24.367 19.1119 24.6877C19.503 25.0083 19.7709 25.4546 19.87 25.9505L20.1437 27.3168H22.5C22.7486 27.3168 22.9871 27.4155 23.1629 27.5914C23.3387 27.7672 23.4375 28.0056 23.4375 28.2543C23.4375 28.5029 23.3387 28.7414 23.1629 28.9172C22.9871 29.093 22.7486 29.1918 22.5 29.1918H7.5C7.25136 29.1918 7.0129 29.093 6.83709 28.9172C6.66127 28.7414 6.5625 28.5029 6.5625 28.2543C6.5625 28.0056 6.66127 27.7672 6.83709 27.5914C7.0129 27.4155 7.25136 27.3168 7.5 27.3168H9.85625L10.13 25.9505C10.2291 25.4546 10.497 25.0083 10.8881 24.6877C11.2792 24.367 11.7693 24.1918 12.275 24.1918H14.0625V21.653C12.515 21.5205 11.2063 21.0555 10.1125 20.323C8.83875 19.468 7.9125 18.2855 7.2375 16.9593L3.9375 15.1255C3.54905 14.9196 3.1707 14.6952 2.80375 14.453C2.45757 14.229 2.16622 13.9299 1.95125 13.578C1.74775 13.2189 1.6277 12.8186 1.6 12.4068C1.5625 12.0355 1.5625 11.5918 1.5625 11.0893V10.908C1.5625 10.298 1.5625 9.76301 1.6125 9.32176C1.6675 8.84551 1.7875 8.38426 2.09375 7.96176C2.39875 7.53801 2.7975 7.27801 3.23125 7.07426C3.635 6.88676 4.1425 6.71801 4.72125 6.52551L5.33625 6.32051C5.375 5.53801 5.545 4.83801 6.07125 4.18926C6.8925 3.17801 7.94125 3.00176 9.205 2.79176L9.3725 2.76301ZM11.7688 27.3168H18.2313L18.0312 26.318C18.0171 26.2472 17.9789 26.1835 17.923 26.1377C17.8672 26.0919 17.7972 26.0668 17.725 26.0668H12.275C12.2028 26.0668 12.1328 26.0919 12.077 26.1377C12.0211 26.1835 11.9829 26.2472 11.9688 26.318L11.7688 27.3168ZM5.3775 8.28301L5.36 8.28926C4.7225 8.50176 4.3175 8.63926 4.0225 8.77551C3.75125 8.90051 3.66375 8.98926 3.615 9.05801C3.56625 9.12676 3.51 9.23676 3.47625 9.53426C3.43875 9.85676 3.4375 10.2843 3.4375 10.9568V11.048C3.4375 11.6043 3.4375 11.953 3.465 12.2205C3.49 12.4655 3.53 12.5643 3.5675 12.6268C3.60375 12.6893 3.67 12.7718 3.8725 12.913C4.0925 13.0655 4.3975 13.2355 4.885 13.5068L6.21625 14.2468C5.68125 12.2843 5.46625 10.1843 5.37875 8.28426M23.785 14.2468C24.32 12.2843 24.535 10.1843 24.6237 8.28426L24.6412 8.29051C25.2787 8.50301 25.6838 8.64051 25.9788 8.77676C26.25 8.90176 26.3375 8.99051 26.3862 9.05926C26.435 9.12801 26.4912 9.23801 26.525 9.53551C26.5625 9.85801 26.5637 10.2855 26.5637 10.958V11.0493C26.5637 11.6055 26.5637 11.9543 26.5363 12.2218C26.5112 12.4668 26.4712 12.5655 26.4338 12.628C26.3975 12.6905 26.3312 12.773 26.1287 12.9143C25.9075 13.0668 25.6038 13.2368 25.1163 13.508L23.785 14.2468ZM15 4.19176C12.825 4.19176 11.0413 4.38301 9.685 4.61176C8.17625 4.86676 7.86 4.96176 7.5275 5.37176C7.2 5.77426 7.16875 6.15676 7.235 7.85051C7.3475 10.673 7.72 13.7205 8.8725 16.038C9.4425 17.1805 10.1875 18.1155 11.1575 18.7655C12.12 19.4118 13.3638 19.8168 15 19.8168C16.6375 19.8168 17.88 19.4118 18.8438 18.7655C19.8137 18.1155 20.5575 17.1805 21.1262 16.0368C22.28 13.7205 22.6525 10.6743 22.7638 7.84926C22.8325 6.15676 22.8013 5.77426 22.4738 5.37176C22.1413 4.96176 21.8238 4.86676 20.315 4.61176C18.5581 4.32416 16.7803 4.18367 15 4.19176Z" fill="white"/>
</svg>
