<svg width="46" height="46" viewBox="0 0 46 46" fill="none" xmlns="http://www.w3.org/2000/svg">
<path fill-rule="evenodd" clip-rule="evenodd" d="M21.1511 9.5C21.4736 9.07813 22.0586 8.46875 22.9999 8.46875C23.9411 8.46875 24.5261 9.07813 24.8486 9.5C25.158 9.90125 25.4674 10.4581 25.7861 11.03L26.013 11.4388L26.1199 11.6262L26.3055 11.6694L26.7518 11.7706C27.3649 11.9094 27.9761 12.0462 28.4449 12.2319C28.9624 12.4362 29.6636 12.8319 29.9355 13.7037C30.2018 14.5569 29.8661 15.2806 29.5736 15.7475C29.3018 16.1787 28.8893 16.6587 28.4674 17.1519L28.1674 17.5044L28.0136 17.6862C28.0174 17.7537 28.0268 17.8325 28.0361 17.9394L28.0811 18.4081C28.1449 19.0662 28.2068 19.7037 28.1843 20.2137C28.1618 20.75 28.0343 21.56 27.3068 22.1094C26.5568 22.6794 25.7318 22.5556 25.2068 22.4037C24.723 22.2669 24.1511 22.0025 23.5755 21.7381L23.1593 21.545L22.9999 21.4719L22.8405 21.5469L22.4224 21.7381C21.8486 22.0025 21.2768 22.2669 20.793 22.4037C20.268 22.5537 19.443 22.6794 18.693 22.1094C17.9674 21.56 17.838 20.75 17.8155 20.2156C17.793 19.7037 17.853 19.0662 17.9186 18.4062L17.9636 17.9375L17.988 17.6862L17.8324 17.5044L17.5324 17.1519C17.1105 16.6587 16.698 16.1769 16.4261 15.7456C16.1336 15.2806 15.798 14.5569 16.0643 13.7019C16.3343 12.8337 17.0374 12.4362 17.5549 12.2319C18.0236 12.0462 18.6349 11.9094 19.248 11.7706L19.6943 11.6694L19.8818 11.6262L19.9868 11.4388L20.2136 11.03C20.5324 10.4581 20.8418 9.90125 21.1511 9.5ZM22.9999 11.8137C22.8924 12.0012 22.768 12.2225 22.6268 12.4775L22.443 12.8075L22.3999 12.8825C22.2536 13.1525 22.0099 13.5987 21.603 13.9081C21.1886 14.2231 20.688 14.3319 20.3974 14.3956L20.3149 14.4125L19.9586 14.4931C19.6286 14.5681 19.3605 14.6281 19.1336 14.6862C19.2818 14.8681 19.4749 15.0969 19.7261 15.3912L19.9699 15.6762L20.0261 15.74C20.2286 15.9744 20.5549 16.3494 20.7068 16.8369C20.8568 17.3169 20.8043 17.8119 20.7724 18.1231L20.763 18.2112L20.7255 18.5919C20.6966 18.8791 20.6703 19.1666 20.6468 19.4544C20.8436 19.3681 21.0649 19.2669 21.3293 19.145L21.6649 18.9913L21.7399 18.9537C22.0099 18.8281 22.4768 18.6069 22.9999 18.6069C23.523 18.6069 23.9899 18.8281 24.2599 18.9556L24.3349 18.9913L24.6705 19.145C24.9318 19.2662 25.1593 19.3694 25.353 19.4544C25.3294 19.1666 25.3032 18.8791 25.2743 18.5919L25.2368 18.2112L25.2274 18.1231C25.1955 17.81 25.143 17.3169 25.293 16.8369C25.443 16.3494 25.7711 15.9744 25.9736 15.74L26.0299 15.6762L26.2736 15.3912C26.5249 15.0969 26.718 14.8681 26.8661 14.6862C26.6393 14.63 26.3711 14.5681 26.0411 14.4931L25.6849 14.4125L25.6024 14.3937C25.3118 14.3319 24.8111 14.2231 24.3968 13.9062C23.9899 13.5987 23.7461 13.1525 23.5999 12.8844L23.5568 12.8075L23.373 12.4775C23.233 12.2225 23.1086 12.0012 22.9999 11.8137Z" fill="#FFF065"/>
<path fill-rule="evenodd" clip-rule="evenodd" d="M14.5588 3.51311C17.3489 3.05464 20.1725 2.83074 23 2.84374C26.4275 2.84374 29.2606 3.14561 31.4413 3.51311L31.6944 3.55624C33.5881 3.87311 35.1631 4.13749 36.3931 5.65249C37.1825 6.62561 37.4375 7.67749 37.4956 8.84936L38.4181 9.15686C39.2863 9.44561 40.0494 9.70061 40.6512 9.98186C41.3037 10.2856 41.9019 10.6756 42.3594 11.3112C42.8169 11.9469 42.9987 12.6369 43.0812 13.3512C43.1562 14.0131 43.1562 14.8137 43.1562 15.7325V16.0025C43.1562 16.7562 43.1562 17.4219 43.1 17.9787C43.04 18.5806 42.9069 19.1675 42.575 19.7337C42.2394 20.3019 41.7912 20.7031 41.2944 21.0481C40.835 21.3669 40.2537 21.6912 39.5938 22.0569L34.6437 24.8075C33.6312 26.7969 32.2437 28.5706 30.3312 29.8512C28.6906 30.9519 26.7275 31.6494 24.4062 31.8481V35.6562H27.0875C27.8461 35.6563 28.5812 35.9191 29.1679 36.4001C29.7545 36.8811 30.1563 37.5505 30.305 38.2944L30.7156 40.3437H34.25C34.623 40.3437 34.9806 40.4919 35.2444 40.7556C35.5081 41.0193 35.6562 41.377 35.6562 41.75C35.6562 42.123 35.5081 42.4806 35.2444 42.7444C34.9806 43.0081 34.623 43.1562 34.25 43.1562H11.75C11.377 43.1562 11.0194 43.0081 10.7556 42.7444C10.4919 42.4806 10.3438 42.123 10.3438 41.75C10.3438 41.377 10.4919 41.0193 10.7556 40.7556C11.0194 40.4919 11.377 40.3437 11.75 40.3437H15.2844L15.695 38.2944C15.8437 37.5505 16.2455 36.8811 16.8321 36.4001C17.4188 35.9191 18.1539 35.6563 18.9125 35.6562H21.5938V31.8481C19.2725 31.6494 17.3094 30.9519 15.6688 29.8531C13.7581 28.5706 12.3687 26.7969 11.3562 24.8075L6.40625 22.0569C5.82357 21.748 5.25605 21.4114 4.70563 21.0481C4.18636 20.712 3.74933 20.2635 3.42687 19.7356C3.12163 19.1969 2.94155 18.5965 2.9 17.9787C2.84375 17.4219 2.84375 16.7562 2.84375 16.0025V15.7306C2.84375 14.8156 2.84375 14.0131 2.91875 13.3512C3.00125 12.6369 3.18125 11.945 3.64062 11.3112C4.09812 10.6756 4.69625 10.2856 5.34688 9.97999C5.9525 9.69874 6.71375 9.44561 7.58187 9.15686L8.50437 8.84936C8.5625 7.67561 8.8175 6.62561 9.60687 5.65249C10.8387 4.13561 12.4119 3.87124 14.3075 3.55624L14.5588 3.51311ZM18.1531 40.3437H27.8469L27.5469 38.8456C27.5256 38.7394 27.4683 38.6438 27.3845 38.5751C27.3008 38.5064 27.1958 38.4688 27.0875 38.4687H18.9125C18.8042 38.4688 18.6992 38.5064 18.6155 38.5751C18.5317 38.6438 18.4744 38.7394 18.4531 38.8456L18.1531 40.3437ZM8.56625 11.7931L8.54 11.8025C7.58375 12.1212 6.97625 12.3275 6.53375 12.5319C6.12687 12.7194 5.99563 12.8525 5.9225 12.9556C5.84938 13.0587 5.765 13.2237 5.71437 13.67C5.65812 14.1537 5.65625 14.795 5.65625 15.8037V15.9406C5.65625 16.775 5.65625 17.2981 5.6975 17.6994C5.735 18.0669 5.795 18.215 5.85125 18.3087C5.90563 18.4025 6.005 18.5262 6.30875 18.7381C6.63875 18.9669 7.09625 19.2219 7.8275 19.6287L9.82438 20.7387C9.02187 17.795 8.69938 14.645 8.56812 11.795M36.1775 20.7387C36.98 17.795 37.3025 14.645 37.4356 11.795L37.4619 11.8044C38.4181 12.1231 39.0256 12.3294 39.4681 12.5337C39.875 12.7212 40.0062 12.8544 40.0794 12.9575C40.1525 13.0606 40.2369 13.2256 40.2875 13.6719C40.3438 14.1556 40.3456 14.7969 40.3456 15.8056V15.9425C40.3456 16.7769 40.3456 17.3 40.3044 17.7012C40.2669 18.0687 40.2069 18.2169 40.1506 18.3106C40.0962 18.4044 39.9969 18.5281 39.6931 18.74C39.3612 18.9687 38.9056 19.2237 38.1744 19.6306L36.1775 20.7387ZM23 5.65624C19.7375 5.65624 17.0619 5.94311 15.0275 6.28624C12.7644 6.66874 12.29 6.81124 11.7912 7.42624C11.3 8.02999 11.2531 8.60374 11.3525 11.1444C11.5212 15.3781 12.08 19.9494 13.8088 23.4256C14.6637 25.1394 15.7812 26.5419 17.2362 27.5169C18.68 28.4862 20.5456 29.0937 23 29.0937C25.4562 29.0937 27.32 28.4862 28.7656 27.5169C30.2206 26.5419 31.3362 25.1394 32.1894 23.4237C33.92 19.9494 34.4788 15.38 34.6456 11.1425C34.7488 8.60374 34.7019 8.02999 34.2106 7.42624C33.7119 6.81124 33.2356 6.66874 30.9725 6.28624C28.3372 5.85483 25.6704 5.6441 23 5.65624Z" fill="white"/>
</svg>
